<?xml version="1.0" encoding="utf-8" ?><svg xmlns="http://www.w3.org/2000/svg" xmlns:xlink="http://www.w3.org/1999/xlink" width="1024" height="1024" viewBox="0 0 1024 1024"><path fill="#204125" d="M418.407 309.781C420.159 311.263 422.079 318.318 423.178 320.815C425.314 326.439 428.243 331.694 431.182 336.849C437.761 349.075 448.155 356.715 457.199 366.209C461.432 370.652 468.948 386.497 472.063 392.283C471.198 387.15 470.324 380.951 469.001 376.001C475.043 378.88 486.33 387.584 492.084 391.651C498.69 396.318 506.919 401.171 513.1 405.894C527.973 417.258 538.499 435.939 548.664 451.615C545.593 442.314 542.967 434.747 539.224 425.691C575.408 453.675 599.189 481.634 593.905 530.18C594.652 528.634 595.371 527.075 596.063 525.503C604.617 505.8 603.066 493.818 595.49 474.424C607.474 487.319 616.548 498.042 624.737 513.877C637.833 539.202 633.308 553.836 625.096 579.216C638.015 561.189 641.345 556.833 641.173 533.296C652.622 552.179 664.374 574.945 658.424 597.601C656.225 605.973 651.336 612.769 646.083 619.496C656.067 611.643 660.896 607.623 665.831 595.873C666.963 611.955 662.503 620.593 652.303 632.675C657.681 628.807 664.004 625.181 669.634 621.3C662.773 630.878 655.716 641.946 647.745 650.623C640.633 627.881 631.364 602.618 620.074 581.595C591.498 528.384 548.765 481.747 503.552 442.19C492.694 432.69 470.68 412.788 459.01 405.894C491.204 438.215 523.76 470.004 553.475 504.686C570.734 524.71 589.503 549.043 603.082 571.511C631.477 618.493 670.009 700.126 643.459 754.177C643.648 728.927 645.477 705.439 639.988 680.326C636.992 666.617 636.116 658.609 621.863 651.77C610.816 646.469 599.192 642.526 588.956 635.766C582.13 631.128 567.968 619.392 563.229 612.388L563.543 612.03C564.257 612.489 565.492 613.269 566.29 613.53C581.42 618.493 593.754 619.264 608.598 613.536C573.676 610.068 550.154 603.286 526.11 575.656C521.074 569.869 514.616 560.503 509.428 555.809C541.6 569.363 552.709 568.599 586.555 564.62C574.541 562.113 560.828 561.359 549.322 558.597C507.036 548.449 477.885 523.565 449.225 492.681C455.706 497.23 461.772 499.276 468.474 502.468C496.213 515.678 512.89 513.752 542.082 511.699C484.326 503.157 432.698 486.404 407.261 428.366C418.203 436.044 434.148 442.336 446.437 447.071C433.427 438.452 423.945 432.542 412.149 421.827C396.36 407.485 398.018 399.885 396.602 379.522C395.063 357.401 402.734 326.352 418.407 309.781Z"/><path fill="#204125" d="M389.228 598.772L395.335 598.621C398.059 635.607 411.848 672.512 437.659 699.482C461.963 724.802 494.647 742.877 530.31 743.478C562.527 744.022 594.55 729.501 608.36 699.155C614.794 685.017 615.867 671.389 616.109 656.145C621.965 658.829 624.928 660.352 629.809 664.449C633.235 676.788 634.973 689.863 636.407 702.55L637.04 713.61C631.292 722.03 616.997 733.947 608.521 739.85C565.828 769.582 511.657 763.148 464.347 749.822C456.574 747.621 448.843 745.276 441.157 742.788C420.017 736.075 402.16 729.501 394.173 757.549L382.053 757.313C382.466 704.49 382.217 651.663 381.307 598.845L389.228 598.772Z"/><path fill="#204125" d="M517.536 261.708C535.572 259.15 568.515 266.573 586.356 271.857C595.402 274.384 604.006 278.002 613.29 279.658C629.703 282.585 634.084 277.017 640.727 263.492L653.494 263.526C650.657 310.907 652.691 357.252 652.908 404.41L638.796 404.512C633.794 366.57 626.092 339.646 598.543 311.301C592.27 305.022 582.671 297.657 575.124 293.002C540.668 271.751 483.272 272.932 460.304 310.631C453.218 322.261 449.249 340.892 452.75 354.328C441.043 340.747 432.957 329.743 426.653 312.763C429.071 307.865 432.083 303.284 435.621 299.122C458.394 271.951 483.824 264.698 517.536 261.708Z"/><path fill="#204125" d="M668.391 634.953C672.078 640.67 661.38 682.578 657.332 686.121L656.657 685.825L656.185 683.903C655.02 675.35 652.885 665.813 651.24 657.205C657.461 648.831 660.38 642.991 668.391 634.953Z"/></svg>